HIERARCHY
ROOT joint_Root
{
	OFFSET 0.0 0.0 0.0
	CHANNELS 6 Xposition Yposition Zposition Zrotation Xrotation Yrotation 
	JOINT Hips
	{
		OFFSET -17.1583 93.1646 452.98
		CHANNELS 6 Xposition Yposition Zposition Zrotation Xrotation Yrotation 
		JOINT Spine
		{
			OFFSET 15.7357 0.0 0.0
			CHANNELS 6 Xposition Yposition Zposition Zrotation Xrotation Yrotation 
			JOINT Chest
			{
				OFFSET 8.98455 -0.406207 0.0
				CHANNELS 6 Xposition Yposition Zposition Zrotation Xrotation Yrotation 
				JOINT Neck
				{
					OFFSET 16.3773 0.0 0.0
					CHANNELS 6 Xposition Yposition Zposition Zrotation Xrotation Yrotation 
					JOINT Head
					{
						OFFSET 6.45672 0.0 0.0
						CHANNELS 6 Xposition Yposition Zposition Zrotation Xrotation Yrotation 
						End Site
						{
							OFFSET 0.0 0.0 0.0
						}
					}
				}
				JOINT Shoulder_L
				{
					OFFSET 12.9942 -0.242716 4.98039
					CHANNELS 6 Xposition Yposition Zposition Zrotation Xrotation Yrotation 
					JOINT UpperArm_L
					{
						OFFSET 5.34809 0.0 0.0
						CHANNELS 6 Xposition Yposition Zposition Zrotation Xrotation Yrotation 
						JOINT LowerArm_L
						{
							OFFSET 24.3286 1.87007e-05 0.0
							CHANNELS 6 Xposition Yposition Zposition Zrotation Xrotation Yrotation 
							JOINT Hand_L
							{
								OFFSET 22.2916 0.0 0.0
								CHANNELS 6 Xposition Yposition Zposition Zrotation Xrotation Yrotation 
								End Site
								{
									OFFSET 0.0 0.0 0.0
								}
							}
						}
					}
				}
				JOINT Shoulder_R
				{
					OFFSET 12.9945 -0.242716 -4.98039
					CHANNELS 6 Xposition Yposition Zposition Zrotation Xrotation Yrotation 
					JOINT UpperArm_R
					{
						OFFSET -5.34813 0.0 0.0
						CHANNELS 6 Xposition Yposition Zposition Zrotation Xrotation Yrotation 
						JOINT LowerArm_R
						{
							OFFSET -24.3289 0.000322201 0.0
							CHANNELS 6 Xposition Yposition Zposition Zrotation Xrotation Yrotation 
							JOINT Hand_R
							{
								OFFSET -22.2915 -0.000108084 0.0
								CHANNELS 6 Xposition Yposition Zposition Zrotation Xrotation Yrotation 
								End Site
								{
									OFFSET 0.0 0.0 0.0
								}
							}
						}
					}
				}
			}
		}
		JOINT UpperLeg_L
		{
			OFFSET -2.19248 -6.46944 0.0
			CHANNELS 6 Xposition Yposition Zposition Zrotation Xrotation Yrotation 
			JOINT LowerLeg_L
			{
				OFFSET 39.0811 0.0 -1.23785e-05
				CHANNELS 6 Xposition Yposition Zposition Zrotation Xrotation Yrotation 
				JOINT Foot_L
				{
					OFFSET 40.9854 0.0 -1.26872e-05
					CHANNELS 6 Xposition Yposition Zposition Zrotation Xrotation Yrotation 
					JOINT Toes_L
					{
						OFFSET 11.7543 0.0 0.0
						CHANNELS 6 Xposition Yposition Zposition Zrotation Xrotation Yrotation 
						End Site
						{
							OFFSET 0.0 0.0 0.0
						}
					}
				}
			}
		}
		JOINT UpperLeg_R
		{
			OFFSET -2.19251 6.46944 0.0
			CHANNELS 6 Xposition Yposition Zposition Zrotation Xrotation Yrotation 
			JOINT LowerLeg_R
			{
				OFFSET -39.0811 -0.00228153 -0.0401928
				CHANNELS 6 Xposition Yposition Zposition Zrotation Xrotation Yrotation 
				JOINT Foot_R
				{
					OFFSET -40.9854 0.0 0.0
					CHANNELS 6 Xposition Yposition Zposition Zrotation Xrotation Yrotation 
					JOINT Toes_R
					{
						OFFSET -11.7543 0.0 0.0
						CHANNELS 6 Xposition Yposition Zposition Zrotation Xrotation Yrotation 
						End Site
						{
							OFFSET 0.0 0.0 0.0
						}
					}
				}
			}
		}
	}
}
MOTION
Frames:	4
Frame Time:	0.0333333
0.000000 0.000000 0.000000 0.000000 0.000000 -0.000000 154.754000 88.555700 216.738000 111.285000 -63.343600 15.252800 15.735700 0.000005 -0.000001 103.298000 86.960900 -105.586000 8.984550 -0.406207 -0.000000 -1.815130 1.588940 -4.550860 16.377300 -0.000001 -0.000001 -3.607580 -4.637260 0.200172 6.456720 -0.000001 -0.000000 0.562681 -7.475990 -1.825880 12.994200 -0.242716 4.980390 -92.423200 7.136970 -71.190700 5.348090 -0.000007 -0.000001 -62.344000 -11.476600 15.585500 24.328600 0.000019 0.000005 5.699990 23.374700 -14.121700 22.291600 -0.000001 0.000005 45.407200 4.402090 18.189700 12.994500 -0.242716 -4.980390 88.873900 3.904700 -73.898800 -5.348130 -0.000001 -0.000004 -75.025700 9.787660 -4.375080 -24.328900 0.000322 -0.000009 -3.508700 -8.070920 -23.580200 -22.291500 -0.000108 -0.000004 36.587200 5.399900 -2.933750 -2.192480 -6.469440 -0.000000 177.272000 1.505060 -25.353300 39.081100 -0.000007 -0.000012 0.311970 -0.424473 36.314700 40.985400 -0.000006 -0.000013 -4.549190 6.054670 -69.195100 11.754300 -0.000000 0.000003 -0.001732 0.192933 -8.749650 -2.192510 6.469440 -0.000001 174.207000 -9.520970 168.551000 -39.081100 -0.002282 -0.040193 0.226737 -0.111308 63.532100 -40.985400 0.000008 0.000006 -6.184780 -4.925290 -33.358800 -11.754300 -0.000006 -0.000006 -0.000068 0.168809 -9.726460
0.000000 0.000000 0.000000 0.000000 0.000000 -0.000000 151.629000 89.235400 218.847000 112.957000 -66.058700 18.047000 15.735700 0.000005 -0.000001 92.207500 86.676600 -94.356400 8.984550 -0.406207 -0.000000 -1.112580 0.422378 -4.292030 16.377300 -0.000001 -0.000001 -3.980210 -3.410560 -0.109797 6.456720 -0.000001 -0.000000 0.345191 -5.497030 -1.427770 12.994200 -0.242716 4.980390 -92.510500 7.507210 -71.449000 5.348090 -0.000007 -0.000001 -64.318800 -8.817990 12.253200 24.328600 0.000019 0.000005 6.532440 21.627500 -17.259000 22.291600 -0.000001 0.000005 44.746900 4.425380 17.816700 12.994500 -0.242716 -4.980390 88.902700 3.836300 -74.024700 -5.348130 -0.000001 -0.000004 -76.222800 9.200890 -3.685320 -24.328900 0.000322 -0.000009 -1.521780 -4.815860 -17.546800 -22.291500 -0.000108 -0.000004 35.018700 5.394660 -2.764520 -2.192480 -6.469440 -0.000000 176.786000 -2.736780 -19.965900 39.081100 -0.000007 -0.000012 0.323123 -0.479800 33.958900 40.985400 -0.000006 -0.000013 -3.489950 7.376320 -70.994400 11.754300 -0.000000 0.000003 -0.001841 0.194333 -8.692700 -2.192510 6.469440 -0.000001 175.041000 -7.194380 163.865000 -39.081100 -0.002282 -0.040193 0.151087 -0.054031 69.940700 -40.985400 0.000008 0.000006 -1.451310 -10.318600 -41.306900 -11.754300 -0.000006 -0.000006 -0.000101 0.169357 -9.704200
0.000000 0.000000 0.000000 0.000000 0.000000 -0.000000 148.558000 90.060800 220.564000 112.152000 -68.506500 18.503600 15.735700 0.000005 -0.000001 83.326300 86.329300 -84.989200 8.984550 -0.406207 -0.000000 -0.482864 -0.733331 -3.327110 16.377300 -0.000001 -0.000001 -3.931300 -2.367540 -0.474340 6.456720 -0.000001 -0.000000 0.231964 -3.782200 -1.150960 12.994200 -0.242716 4.980390 -92.453200 7.405860 -71.614600 5.348090 -0.000007 -0.000001 -66.331100 -5.293020 7.624600 24.328600 0.000019 0.000005 7.379200 21.106800 -19.780200 22.291600 -0.000001 0.000005 44.841500 4.443470 17.524500 12.994500 -0.242716 -4.980390 89.082500 3.234510 -74.154200 -5.348130 -0.000001 -0.000004 -77.331700 7.556720 -1.775160 -24.328900 0.000322 -0.000009 -1.244810 -5.142020 -13.617000 -22.291500 -0.000108 -0.000004 33.765800 5.370740 -2.009140 -2.192480 -6.469440 -0.000000 177.959000 -4.932490 -14.050800 39.081100 -0.000007 -0.000012 0.223307 -0.387232 29.971300 40.985400 -0.000006 -0.000013 -4.347210 7.979480 -71.494000 11.754300 -0.000000 0.000003 -0.001480 0.189628 -8.884000 -2.192510 6.469440 -0.000001 177.323000 -5.223930 160.151000 -39.081100 -0.002282 -0.040193 0.062716 -0.019120 72.222800 -40.985400 0.000008 0.000006 1.140050 -12.594600 -46.226300 -11.754300 -0.000006 -0.000006 -0.000592 0.177091 -9.390030
0.000000 0.000000 0.000000 0.000000 0.000000 -0.000000 145.618000 90.900700 222.057000 110.201000 -71.072000 17.402100 15.735700 0.000005 -0.000001 78.634800 86.099900 -79.674400 8.984550 -0.406207 -0.000000 -0.131091 -1.465110 -2.079550 16.377300 -0.000001 -0.000001 -3.540590 -1.547730 -0.682931 6.456720 -0.000001 -0.000000 0.313723 -2.360670 -1.227770 12.994200 -0.242716 4.980390 -92.304300 7.113230 -71.998400 5.348090 -0.000007 -0.000001 -67.708300 -3.373230 3.012490 24.328600 0.000019 0.000005 9.305800 21.890800 -23.724800 22.291600 -0.000001 0.000005 44.463000 4.476250 16.990800 12.994500 -0.242716 -4.980390 89.309200 2.429550 -74.122100 -5.348130 -0.000001 -0.000004 -77.573300 5.971280 0.294666 -24.328900 0.000322 -0.000009 -0.614402 -3.436830 -10.120300 -22.291500 -0.000108 -0.000004 32.051500 5.346810 -1.281360 -2.192480 -6.469440 -0.000000 -179.691000 -6.067130 -8.127890 39.081100 -0.000007 -0.000012 -0.046010 0.102548 24.164200 40.985400 -0.000006 -0.000013 -11.876700 8.618740 -67.854800 11.754300 -0.000000 0.000003 0.759672 1.317670 -10.652500 -2.192510 6.469440 -0.000001 179.935000 -3.994490 157.090000 -39.081100 -0.002282 -0.040193 0.000491 0.000903 70.923300 -40.985400 0.000008 0.000006 2.269850 -11.010700 -49.995000 -11.754300 -0.000006 -0.000006 -0.000701 0.178738 -9.323120
